# xmcd CD database file
#
# Track frame offsets:
#	150
#	18766
#	35754
#	55293
#	74723
#	97321
#	120411
#	139011
#	156460
#	178050
#
# Disc length: 2721 seconds
#
# Revision: 0
# Processed by: cddbd v1.5.2PL0 Copyright (c) Steve Scherf et al.
# Submitted via: CDex 1.51
#
DISCID=930a9f0a
DTITLE=Juliet Lloyd - All Dressed Up
DYEAR=2005
DGENRE=Blues
TTITLE0=Ever After
TTITLE1=Left Behind
TTITLE2=Lullaby
TTITLE3=No One's Anything
TTITLE4=All Dressed Up
TTITLE5=Sun Burned Sky
TTITLE6=Before Me
TTITLE7=Lonely Street
TTITLE8=Too Little, Too Late
TTITLE9=Ordinary World
EXTD=YEAR: 2005
EXTT0=
EXTT1=
EXTT2=
EXTT3=
EXTT4=
EXTT5=
EXTT6=
EXTT7=
EXTT8=
EXTT9=
PLAYORDER=
